<mxfile host="app.diagrams.net" modified="2023-11-24T09:52:14.168Z" agent="Mozilla/5.0 (Windows NT 10.0; Win64; x64) AppleWebKit/537.36 (KHTML, like Gecko) Chrome/119.0.0.0 Safari/537.36 Edg/119.0.0.0" version="22.1.3" etag="mtW7FDgjMOOBoAZGnn-p" type="device">
  <diagram id="B8jH3R9PNvVU0t3AqgWf" name="Page-1">
    <mxGraphModel dx="998" dy="580" grid="1" gridSize="10" guides="1" tooltips="1" connect="1" arrows="1" fold="1" page="1" pageScale="1" pageWidth="850" pageHeight="1100" math="0" shadow="0">
      <root>
        <mxCell id="0" />
        <mxCell id="1" parent="0" />
        <mxCell id="TNspeRZDi3RnhtZ2Tgso-413" value="" style="rounded=0;whiteSpace=wrap;html=1;strokeWidth=3;fillColor=#f5f5f5;fontColor=#333333;strokeColor=#666666;" vertex="1" parent="1">
          <mxGeometry x="1130" y="600" width="420" height="340" as="geometry" />
        </mxCell>
        <mxCell id="TNspeRZDi3RnhtZ2Tgso-2" value="A" style="ellipse;whiteSpace=wrap;html=1;aspect=fixed;strokeWidth=4;fontSize=20;fontStyle=1" vertex="1" parent="1">
          <mxGeometry x="160" y="40" width="40" height="40" as="geometry" />
        </mxCell>
        <mxCell id="TNspeRZDi3RnhtZ2Tgso-7" value="&lt;font style=&quot;font-size: 20px;&quot;&gt;&lt;b&gt;0&lt;/b&gt;&lt;/font&gt;" style="text;html=1;strokeColor=none;fillColor=none;align=center;verticalAlign=middle;whiteSpace=wrap;rounded=0;" vertex="1" parent="1">
          <mxGeometry x="70" y="45" width="60" height="30" as="geometry" />
        </mxCell>
        <mxCell id="TNspeRZDi3RnhtZ2Tgso-8" value="A" style="ellipse;whiteSpace=wrap;html=1;aspect=fixed;strokeWidth=4;fontSize=20;fontStyle=1" vertex="1" parent="1">
          <mxGeometry x="160" y="120" width="40" height="40" as="geometry" />
        </mxCell>
        <mxCell id="TNspeRZDi3RnhtZ2Tgso-9" value="B" style="ellipse;whiteSpace=wrap;html=1;aspect=fixed;strokeWidth=4;fontSize=20;fontStyle=1" vertex="1" parent="1">
          <mxGeometry x="240" y="120" width="40" height="40" as="geometry" />
        </mxCell>
        <mxCell id="TNspeRZDi3RnhtZ2Tgso-13" value="&lt;font style=&quot;font-size: 20px;&quot;&gt;&lt;b&gt;1&lt;br&gt;&lt;/b&gt;&lt;/font&gt;" style="text;html=1;strokeColor=none;fillColor=none;align=center;verticalAlign=middle;whiteSpace=wrap;rounded=0;" vertex="1" parent="1">
          <mxGeometry x="70" y="125" width="60" height="30" as="geometry" />
        </mxCell>
        <mxCell id="TNspeRZDi3RnhtZ2Tgso-14" value="20" style="text;html=1;strokeColor=none;fillColor=none;align=center;verticalAlign=middle;whiteSpace=wrap;rounded=0;" vertex="1" parent="1">
          <mxGeometry x="150" y="80" width="60" height="30" as="geometry" />
        </mxCell>
        <mxCell id="TNspeRZDi3RnhtZ2Tgso-19" value="20" style="text;html=1;strokeColor=none;fillColor=none;align=center;verticalAlign=middle;whiteSpace=wrap;rounded=0;" vertex="1" parent="1">
          <mxGeometry x="150" y="160" width="60" height="30" as="geometry" />
        </mxCell>
        <mxCell id="TNspeRZDi3RnhtZ2Tgso-20" value="23" style="text;html=1;strokeColor=none;fillColor=none;align=center;verticalAlign=middle;whiteSpace=wrap;rounded=0;" vertex="1" parent="1">
          <mxGeometry x="230" y="160" width="60" height="30" as="geometry" />
        </mxCell>
        <mxCell id="TNspeRZDi3RnhtZ2Tgso-24" value="A" style="ellipse;whiteSpace=wrap;html=1;aspect=fixed;strokeWidth=4;fontSize=20;fontStyle=1" vertex="1" parent="1">
          <mxGeometry x="160" y="200" width="40" height="40" as="geometry" />
        </mxCell>
        <mxCell id="TNspeRZDi3RnhtZ2Tgso-25" value="B" style="ellipse;whiteSpace=wrap;html=1;aspect=fixed;strokeWidth=4;fontSize=20;fontStyle=1" vertex="1" parent="1">
          <mxGeometry x="240" y="200" width="40" height="40" as="geometry" />
        </mxCell>
        <mxCell id="TNspeRZDi3RnhtZ2Tgso-27" value="C" style="ellipse;whiteSpace=wrap;html=1;aspect=fixed;strokeWidth=4;fontSize=20;fontStyle=1;fillColor=#ffe6cc;strokeColor=#d79b00;" vertex="1" parent="1">
          <mxGeometry x="320" y="200" width="40" height="40" as="geometry" />
        </mxCell>
        <mxCell id="TNspeRZDi3RnhtZ2Tgso-29" value="&lt;font style=&quot;font-size: 20px;&quot;&gt;&lt;b&gt;2&lt;br&gt;&lt;/b&gt;&lt;/font&gt;" style="text;html=1;strokeColor=none;fillColor=none;align=center;verticalAlign=middle;whiteSpace=wrap;rounded=0;" vertex="1" parent="1">
          <mxGeometry x="70" y="205" width="60" height="30" as="geometry" />
        </mxCell>
        <mxCell id="TNspeRZDi3RnhtZ2Tgso-30" value="20" style="text;html=1;strokeColor=none;fillColor=none;align=center;verticalAlign=middle;whiteSpace=wrap;rounded=0;" vertex="1" parent="1">
          <mxGeometry x="150" y="240" width="60" height="30" as="geometry" />
        </mxCell>
        <mxCell id="TNspeRZDi3RnhtZ2Tgso-31" value="23" style="text;html=1;strokeColor=none;fillColor=none;align=center;verticalAlign=middle;whiteSpace=wrap;rounded=0;" vertex="1" parent="1">
          <mxGeometry x="230" y="240" width="60" height="30" as="geometry" />
        </mxCell>
        <mxCell id="TNspeRZDi3RnhtZ2Tgso-33" value="11" style="text;html=1;strokeColor=none;fillColor=none;align=center;verticalAlign=middle;whiteSpace=wrap;rounded=0;" vertex="1" parent="1">
          <mxGeometry x="310" y="240" width="60" height="30" as="geometry" />
        </mxCell>
        <mxCell id="TNspeRZDi3RnhtZ2Tgso-39" value="C" style="ellipse;whiteSpace=wrap;html=1;aspect=fixed;strokeWidth=4;fontSize=20;fontStyle=1;" vertex="1" parent="1">
          <mxGeometry x="160" y="360" width="40" height="40" as="geometry" />
        </mxCell>
        <mxCell id="TNspeRZDi3RnhtZ2Tgso-40" value="A" style="ellipse;whiteSpace=wrap;html=1;aspect=fixed;strokeWidth=4;fontSize=20;fontStyle=1" vertex="1" parent="1">
          <mxGeometry x="240" y="360" width="40" height="40" as="geometry" />
        </mxCell>
        <mxCell id="TNspeRZDi3RnhtZ2Tgso-43" value="B" style="ellipse;whiteSpace=wrap;html=1;aspect=fixed;strokeWidth=4;fontSize=20;fontStyle=1" vertex="1" parent="1">
          <mxGeometry x="320" y="360" width="40" height="40" as="geometry" />
        </mxCell>
        <mxCell id="TNspeRZDi3RnhtZ2Tgso-46" value="&lt;font style=&quot;font-size: 20px;&quot;&gt;&lt;b&gt;3&lt;br&gt;&lt;/b&gt;&lt;/font&gt;" style="text;html=1;strokeColor=none;fillColor=none;align=center;verticalAlign=middle;whiteSpace=wrap;rounded=0;" vertex="1" parent="1">
          <mxGeometry x="70" y="365" width="60" height="30" as="geometry" />
        </mxCell>
        <mxCell id="TNspeRZDi3RnhtZ2Tgso-47" value="11" style="text;html=1;strokeColor=none;fillColor=none;align=center;verticalAlign=middle;whiteSpace=wrap;rounded=0;" vertex="1" parent="1">
          <mxGeometry x="150" y="400" width="60" height="30" as="geometry" />
        </mxCell>
        <mxCell id="TNspeRZDi3RnhtZ2Tgso-48" value="20" style="text;html=1;strokeColor=none;fillColor=none;align=center;verticalAlign=middle;whiteSpace=wrap;rounded=0;" vertex="1" parent="1">
          <mxGeometry x="230" y="400" width="60" height="30" as="geometry" />
        </mxCell>
        <mxCell id="TNspeRZDi3RnhtZ2Tgso-50" value="23" style="text;html=1;strokeColor=none;fillColor=none;align=center;verticalAlign=middle;whiteSpace=wrap;rounded=0;" vertex="1" parent="1">
          <mxGeometry x="310" y="400" width="60" height="30" as="geometry" />
        </mxCell>
        <mxCell id="TNspeRZDi3RnhtZ2Tgso-52" value="D" style="ellipse;whiteSpace=wrap;html=1;aspect=fixed;strokeWidth=4;fontSize=20;fontStyle=1;" vertex="1" parent="1">
          <mxGeometry x="400" y="360" width="40" height="40" as="geometry" />
        </mxCell>
        <mxCell id="TNspeRZDi3RnhtZ2Tgso-53" value="24" style="text;html=1;align=center;verticalAlign=middle;whiteSpace=wrap;rounded=0;" vertex="1" parent="1">
          <mxGeometry x="390" y="400" width="60" height="30" as="geometry" />
        </mxCell>
        <mxCell id="TNspeRZDi3RnhtZ2Tgso-204" value="C" style="ellipse;whiteSpace=wrap;html=1;aspect=fixed;strokeWidth=4;fontSize=20;fontStyle=1;fillColor=#ffe6cc;strokeColor=#d79b00;" vertex="1" parent="1">
          <mxGeometry x="160" y="280" width="40" height="40" as="geometry" />
        </mxCell>
        <mxCell id="TNspeRZDi3RnhtZ2Tgso-205" value="A" style="ellipse;whiteSpace=wrap;html=1;aspect=fixed;strokeWidth=4;fontSize=20;fontStyle=1" vertex="1" parent="1">
          <mxGeometry x="240" y="280" width="40" height="40" as="geometry" />
        </mxCell>
        <mxCell id="TNspeRZDi3RnhtZ2Tgso-206" value="B" style="ellipse;whiteSpace=wrap;html=1;aspect=fixed;strokeWidth=4;fontSize=20;fontStyle=1" vertex="1" parent="1">
          <mxGeometry x="320" y="280" width="40" height="40" as="geometry" />
        </mxCell>
        <mxCell id="TNspeRZDi3RnhtZ2Tgso-207" value="&lt;font style=&quot;font-size: 20px;&quot;&gt;&lt;b&gt;2&lt;br&gt;&lt;/b&gt;&lt;/font&gt;" style="text;html=1;strokeColor=none;fillColor=none;align=center;verticalAlign=middle;whiteSpace=wrap;rounded=0;" vertex="1" parent="1">
          <mxGeometry x="70" y="285" width="60" height="30" as="geometry" />
        </mxCell>
        <mxCell id="TNspeRZDi3RnhtZ2Tgso-208" value="11" style="text;html=1;strokeColor=none;fillColor=none;align=center;verticalAlign=middle;whiteSpace=wrap;rounded=0;" vertex="1" parent="1">
          <mxGeometry x="150" y="320" width="60" height="30" as="geometry" />
        </mxCell>
        <mxCell id="TNspeRZDi3RnhtZ2Tgso-209" value="20" style="text;html=1;strokeColor=none;fillColor=none;align=center;verticalAlign=middle;whiteSpace=wrap;rounded=0;" vertex="1" parent="1">
          <mxGeometry x="230" y="320" width="60" height="30" as="geometry" />
        </mxCell>
        <mxCell id="TNspeRZDi3RnhtZ2Tgso-210" value="23" style="text;html=1;strokeColor=none;fillColor=none;align=center;verticalAlign=middle;whiteSpace=wrap;rounded=0;" vertex="1" parent="1">
          <mxGeometry x="310" y="320" width="60" height="30" as="geometry" />
        </mxCell>
        <mxCell id="TNspeRZDi3RnhtZ2Tgso-211" value="C" style="ellipse;whiteSpace=wrap;html=1;aspect=fixed;strokeWidth=4;fontSize=20;fontStyle=1;" vertex="1" parent="1">
          <mxGeometry x="160" y="440" width="40" height="40" as="geometry" />
        </mxCell>
        <mxCell id="TNspeRZDi3RnhtZ2Tgso-212" value="A" style="ellipse;whiteSpace=wrap;html=1;aspect=fixed;strokeWidth=4;fontSize=20;fontStyle=1" vertex="1" parent="1">
          <mxGeometry x="240" y="440" width="40" height="40" as="geometry" />
        </mxCell>
        <mxCell id="TNspeRZDi3RnhtZ2Tgso-213" value="B" style="ellipse;whiteSpace=wrap;html=1;aspect=fixed;strokeWidth=4;fontSize=20;fontStyle=1" vertex="1" parent="1">
          <mxGeometry x="320" y="440" width="40" height="40" as="geometry" />
        </mxCell>
        <mxCell id="TNspeRZDi3RnhtZ2Tgso-214" value="&lt;font style=&quot;font-size: 20px;&quot;&gt;&lt;b&gt;4&lt;br&gt;&lt;/b&gt;&lt;/font&gt;" style="text;html=1;strokeColor=none;fillColor=none;align=center;verticalAlign=middle;whiteSpace=wrap;rounded=0;" vertex="1" parent="1">
          <mxGeometry x="70" y="445" width="60" height="30" as="geometry" />
        </mxCell>
        <mxCell id="TNspeRZDi3RnhtZ2Tgso-215" value="11" style="text;html=1;strokeColor=none;fillColor=none;align=center;verticalAlign=middle;whiteSpace=wrap;rounded=0;" vertex="1" parent="1">
          <mxGeometry x="150" y="480" width="60" height="30" as="geometry" />
        </mxCell>
        <mxCell id="TNspeRZDi3RnhtZ2Tgso-216" value="20" style="text;html=1;strokeColor=none;fillColor=none;align=center;verticalAlign=middle;whiteSpace=wrap;rounded=0;" vertex="1" parent="1">
          <mxGeometry x="230" y="480" width="60" height="30" as="geometry" />
        </mxCell>
        <mxCell id="TNspeRZDi3RnhtZ2Tgso-217" value="23" style="text;html=1;strokeColor=none;fillColor=none;align=center;verticalAlign=middle;whiteSpace=wrap;rounded=0;" vertex="1" parent="1">
          <mxGeometry x="310" y="480" width="60" height="30" as="geometry" />
        </mxCell>
        <mxCell id="TNspeRZDi3RnhtZ2Tgso-218" value="D" style="ellipse;whiteSpace=wrap;html=1;aspect=fixed;strokeWidth=4;fontSize=20;fontStyle=1;" vertex="1" parent="1">
          <mxGeometry x="400" y="440" width="40" height="40" as="geometry" />
        </mxCell>
        <mxCell id="TNspeRZDi3RnhtZ2Tgso-219" value="24" style="text;html=1;align=center;verticalAlign=middle;whiteSpace=wrap;rounded=0;" vertex="1" parent="1">
          <mxGeometry x="390" y="480" width="60" height="30" as="geometry" />
        </mxCell>
        <mxCell id="TNspeRZDi3RnhtZ2Tgso-220" value="E" style="ellipse;whiteSpace=wrap;html=1;aspect=fixed;strokeWidth=4;fontSize=20;fontStyle=1;fillColor=#ffe6cc;strokeColor=#d79b00;" vertex="1" parent="1">
          <mxGeometry x="480" y="440" width="40" height="40" as="geometry" />
        </mxCell>
        <mxCell id="TNspeRZDi3RnhtZ2Tgso-221" value="9" style="text;html=1;strokeColor=none;fillColor=none;align=center;verticalAlign=middle;whiteSpace=wrap;rounded=0;" vertex="1" parent="1">
          <mxGeometry x="470" y="480" width="60" height="30" as="geometry" />
        </mxCell>
        <mxCell id="TNspeRZDi3RnhtZ2Tgso-222" value="E" style="ellipse;whiteSpace=wrap;html=1;aspect=fixed;strokeWidth=4;fontSize=20;fontStyle=1;fillColor=#ffe6cc;strokeColor=#d79b00;" vertex="1" parent="1">
          <mxGeometry x="160" y="520" width="40" height="40" as="geometry" />
        </mxCell>
        <mxCell id="TNspeRZDi3RnhtZ2Tgso-223" value="A" style="ellipse;whiteSpace=wrap;html=1;aspect=fixed;strokeWidth=4;fontSize=20;fontStyle=1" vertex="1" parent="1">
          <mxGeometry x="320" y="520" width="40" height="40" as="geometry" />
        </mxCell>
        <mxCell id="TNspeRZDi3RnhtZ2Tgso-224" value="B" style="ellipse;whiteSpace=wrap;html=1;aspect=fixed;strokeWidth=4;fontSize=20;fontStyle=1" vertex="1" parent="1">
          <mxGeometry x="400" y="520" width="40" height="40" as="geometry" />
        </mxCell>
        <mxCell id="TNspeRZDi3RnhtZ2Tgso-225" value="&lt;font style=&quot;font-size: 20px;&quot;&gt;&lt;b&gt;4&lt;br&gt;&lt;/b&gt;&lt;/font&gt;" style="text;html=1;strokeColor=none;fillColor=none;align=center;verticalAlign=middle;whiteSpace=wrap;rounded=0;" vertex="1" parent="1">
          <mxGeometry x="70" y="525" width="60" height="30" as="geometry" />
        </mxCell>
        <mxCell id="TNspeRZDi3RnhtZ2Tgso-226" value="9" style="text;html=1;strokeColor=none;fillColor=none;align=center;verticalAlign=middle;whiteSpace=wrap;rounded=0;" vertex="1" parent="1">
          <mxGeometry x="150" y="560" width="60" height="30" as="geometry" />
        </mxCell>
        <mxCell id="TNspeRZDi3RnhtZ2Tgso-227" value="20" style="text;html=1;strokeColor=none;fillColor=none;align=center;verticalAlign=middle;whiteSpace=wrap;rounded=0;" vertex="1" parent="1">
          <mxGeometry x="310" y="560" width="60" height="30" as="geometry" />
        </mxCell>
        <mxCell id="TNspeRZDi3RnhtZ2Tgso-228" value="23" style="text;html=1;strokeColor=none;fillColor=none;align=center;verticalAlign=middle;whiteSpace=wrap;rounded=0;" vertex="1" parent="1">
          <mxGeometry x="390" y="560" width="60" height="30" as="geometry" />
        </mxCell>
        <mxCell id="TNspeRZDi3RnhtZ2Tgso-229" value="D" style="ellipse;whiteSpace=wrap;html=1;aspect=fixed;strokeWidth=4;fontSize=20;fontStyle=1;" vertex="1" parent="1">
          <mxGeometry x="480" y="520" width="40" height="40" as="geometry" />
        </mxCell>
        <mxCell id="TNspeRZDi3RnhtZ2Tgso-230" value="24" style="text;html=1;align=center;verticalAlign=middle;whiteSpace=wrap;rounded=0;" vertex="1" parent="1">
          <mxGeometry x="470" y="560" width="60" height="30" as="geometry" />
        </mxCell>
        <mxCell id="TNspeRZDi3RnhtZ2Tgso-231" value="C" style="ellipse;whiteSpace=wrap;html=1;aspect=fixed;strokeWidth=4;fontSize=20;fontStyle=1;" vertex="1" parent="1">
          <mxGeometry x="240" y="520" width="40" height="40" as="geometry" />
        </mxCell>
        <mxCell id="TNspeRZDi3RnhtZ2Tgso-232" value="11" style="text;html=1;strokeColor=none;fillColor=none;align=center;verticalAlign=middle;whiteSpace=wrap;rounded=0;" vertex="1" parent="1">
          <mxGeometry x="230" y="560" width="60" height="30" as="geometry" />
        </mxCell>
        <mxCell id="TNspeRZDi3RnhtZ2Tgso-233" value="E" style="ellipse;whiteSpace=wrap;html=1;aspect=fixed;strokeWidth=4;fontSize=20;fontStyle=1;" vertex="1" parent="1">
          <mxGeometry x="160" y="600" width="40" height="40" as="geometry" />
        </mxCell>
        <mxCell id="TNspeRZDi3RnhtZ2Tgso-234" value="A" style="ellipse;whiteSpace=wrap;html=1;aspect=fixed;strokeWidth=4;fontSize=20;fontStyle=1" vertex="1" parent="1">
          <mxGeometry x="320" y="600" width="40" height="40" as="geometry" />
        </mxCell>
        <mxCell id="TNspeRZDi3RnhtZ2Tgso-235" value="B" style="ellipse;whiteSpace=wrap;html=1;aspect=fixed;strokeWidth=4;fontSize=20;fontStyle=1" vertex="1" parent="1">
          <mxGeometry x="400" y="600" width="40" height="40" as="geometry" />
        </mxCell>
        <mxCell id="TNspeRZDi3RnhtZ2Tgso-236" value="&lt;font style=&quot;font-size: 20px;&quot;&gt;&lt;b&gt;5&lt;br&gt;&lt;/b&gt;&lt;/font&gt;" style="text;html=1;strokeColor=none;fillColor=none;align=center;verticalAlign=middle;whiteSpace=wrap;rounded=0;" vertex="1" parent="1">
          <mxGeometry x="70" y="605" width="60" height="30" as="geometry" />
        </mxCell>
        <mxCell id="TNspeRZDi3RnhtZ2Tgso-237" value="9" style="text;html=1;strokeColor=none;fillColor=none;align=center;verticalAlign=middle;whiteSpace=wrap;rounded=0;fontStyle=1;fontColor=#FF0000;" vertex="1" parent="1">
          <mxGeometry x="150" y="640" width="60" height="30" as="geometry" />
        </mxCell>
        <mxCell id="TNspeRZDi3RnhtZ2Tgso-238" value="20" style="text;html=1;strokeColor=none;fillColor=none;align=center;verticalAlign=middle;whiteSpace=wrap;rounded=0;" vertex="1" parent="1">
          <mxGeometry x="310" y="640" width="60" height="30" as="geometry" />
        </mxCell>
        <mxCell id="TNspeRZDi3RnhtZ2Tgso-239" value="23" style="text;html=1;strokeColor=none;fillColor=none;align=center;verticalAlign=middle;whiteSpace=wrap;rounded=0;" vertex="1" parent="1">
          <mxGeometry x="390" y="640" width="60" height="30" as="geometry" />
        </mxCell>
        <mxCell id="TNspeRZDi3RnhtZ2Tgso-240" value="D" style="ellipse;whiteSpace=wrap;html=1;aspect=fixed;strokeWidth=4;fontSize=20;fontStyle=1;" vertex="1" parent="1">
          <mxGeometry x="480" y="600" width="40" height="40" as="geometry" />
        </mxCell>
        <mxCell id="TNspeRZDi3RnhtZ2Tgso-241" value="24" style="text;html=1;align=center;verticalAlign=middle;whiteSpace=wrap;rounded=0;" vertex="1" parent="1">
          <mxGeometry x="470" y="640" width="60" height="30" as="geometry" />
        </mxCell>
        <mxCell id="TNspeRZDi3RnhtZ2Tgso-242" value="C" style="ellipse;whiteSpace=wrap;html=1;aspect=fixed;strokeWidth=4;fontSize=20;fontStyle=1;" vertex="1" parent="1">
          <mxGeometry x="240" y="600" width="40" height="40" as="geometry" />
        </mxCell>
        <mxCell id="TNspeRZDi3RnhtZ2Tgso-243" value="11" style="text;html=1;strokeColor=none;fillColor=none;align=center;verticalAlign=middle;whiteSpace=wrap;rounded=0;fontStyle=1;fontColor=#FF0000;" vertex="1" parent="1">
          <mxGeometry x="230" y="640" width="60" height="30" as="geometry" />
        </mxCell>
        <mxCell id="TNspeRZDi3RnhtZ2Tgso-259" style="rounded=0;orthogonalLoop=1;jettySize=auto;html=1;strokeWidth=3;" edge="1" parent="1" source="TNspeRZDi3RnhtZ2Tgso-246" target="TNspeRZDi3RnhtZ2Tgso-258">
          <mxGeometry relative="1" as="geometry" />
        </mxCell>
        <mxCell id="TNspeRZDi3RnhtZ2Tgso-246" value="E" style="ellipse;whiteSpace=wrap;html=1;aspect=fixed;strokeWidth=4;fontSize=20;fontStyle=1;" vertex="1" parent="1">
          <mxGeometry x="160" y="760" width="40" height="40" as="geometry" />
        </mxCell>
        <mxCell id="TNspeRZDi3RnhtZ2Tgso-247" value="A" style="ellipse;whiteSpace=wrap;html=1;aspect=fixed;strokeWidth=4;fontSize=20;fontStyle=1" vertex="1" parent="1">
          <mxGeometry x="320" y="680" width="40" height="40" as="geometry" />
        </mxCell>
        <mxCell id="TNspeRZDi3RnhtZ2Tgso-248" value="B" style="ellipse;whiteSpace=wrap;html=1;aspect=fixed;strokeWidth=4;fontSize=20;fontStyle=1" vertex="1" parent="1">
          <mxGeometry x="400" y="680" width="40" height="40" as="geometry" />
        </mxCell>
        <mxCell id="TNspeRZDi3RnhtZ2Tgso-249" value="&lt;font style=&quot;font-size: 20px;&quot;&gt;&lt;b&gt;5&lt;br&gt;&lt;/b&gt;&lt;/font&gt;" style="text;html=1;strokeColor=none;fillColor=none;align=center;verticalAlign=middle;whiteSpace=wrap;rounded=0;" vertex="1" parent="1">
          <mxGeometry x="70" y="685" width="60" height="30" as="geometry" />
        </mxCell>
        <mxCell id="TNspeRZDi3RnhtZ2Tgso-251" value="20" style="text;html=1;strokeColor=none;fillColor=none;align=center;verticalAlign=middle;whiteSpace=wrap;rounded=0;fontStyle=0;fontColor=#000000;" vertex="1" parent="1">
          <mxGeometry x="310" y="720" width="60" height="30" as="geometry" />
        </mxCell>
        <mxCell id="TNspeRZDi3RnhtZ2Tgso-252" value="23" style="text;html=1;strokeColor=none;fillColor=none;align=center;verticalAlign=middle;whiteSpace=wrap;rounded=0;" vertex="1" parent="1">
          <mxGeometry x="390" y="720" width="60" height="30" as="geometry" />
        </mxCell>
        <mxCell id="TNspeRZDi3RnhtZ2Tgso-253" value="D" style="ellipse;whiteSpace=wrap;html=1;aspect=fixed;strokeWidth=4;fontSize=20;fontStyle=1;" vertex="1" parent="1">
          <mxGeometry x="480" y="680" width="40" height="40" as="geometry" />
        </mxCell>
        <mxCell id="TNspeRZDi3RnhtZ2Tgso-254" value="24" style="text;html=1;align=center;verticalAlign=middle;whiteSpace=wrap;rounded=0;" vertex="1" parent="1">
          <mxGeometry x="470" y="720" width="60" height="30" as="geometry" />
        </mxCell>
        <mxCell id="TNspeRZDi3RnhtZ2Tgso-260" style="rounded=0;orthogonalLoop=1;jettySize=auto;html=1;strokeWidth=3;" edge="1" parent="1" source="TNspeRZDi3RnhtZ2Tgso-255" target="TNspeRZDi3RnhtZ2Tgso-258">
          <mxGeometry relative="1" as="geometry" />
        </mxCell>
        <mxCell id="TNspeRZDi3RnhtZ2Tgso-255" value="C" style="ellipse;whiteSpace=wrap;html=1;aspect=fixed;strokeWidth=4;fontSize=20;fontStyle=1;" vertex="1" parent="1">
          <mxGeometry x="240" y="760" width="40" height="40" as="geometry" />
        </mxCell>
        <mxCell id="TNspeRZDi3RnhtZ2Tgso-257" value="" style="ellipse;whiteSpace=wrap;html=1;aspect=fixed;strokeWidth=4;fontSize=20;fontStyle=1" vertex="1" parent="1">
          <mxGeometry x="200" y="680" width="40" height="40" as="geometry" />
        </mxCell>
        <mxCell id="TNspeRZDi3RnhtZ2Tgso-258" value="20" style="text;html=1;strokeColor=none;fillColor=none;align=center;verticalAlign=middle;whiteSpace=wrap;rounded=0;fontStyle=1;fontColor=#FF0000;" vertex="1" parent="1">
          <mxGeometry x="190" y="685" width="60" height="30" as="geometry" />
        </mxCell>
        <mxCell id="TNspeRZDi3RnhtZ2Tgso-264" value="B" style="ellipse;whiteSpace=wrap;html=1;aspect=fixed;strokeWidth=4;fontSize=20;fontStyle=1" vertex="1" parent="1">
          <mxGeometry x="920" y="40" width="40" height="40" as="geometry" />
        </mxCell>
        <mxCell id="TNspeRZDi3RnhtZ2Tgso-265" value="&lt;font style=&quot;font-size: 20px;&quot;&gt;&lt;b&gt;6&lt;br&gt;&lt;/b&gt;&lt;/font&gt;" style="text;html=1;strokeColor=none;fillColor=none;align=center;verticalAlign=middle;whiteSpace=wrap;rounded=0;" vertex="1" parent="1">
          <mxGeometry x="590" y="45" width="60" height="30" as="geometry" />
        </mxCell>
        <mxCell id="TNspeRZDi3RnhtZ2Tgso-268" value="23" style="text;html=1;strokeColor=none;fillColor=none;align=center;verticalAlign=middle;whiteSpace=wrap;rounded=0;" vertex="1" parent="1">
          <mxGeometry x="910" y="80" width="60" height="30" as="geometry" />
        </mxCell>
        <mxCell id="TNspeRZDi3RnhtZ2Tgso-269" value="D" style="ellipse;whiteSpace=wrap;html=1;aspect=fixed;strokeWidth=4;fontSize=20;fontStyle=1;" vertex="1" parent="1">
          <mxGeometry x="1000" y="40" width="40" height="40" as="geometry" />
        </mxCell>
        <mxCell id="TNspeRZDi3RnhtZ2Tgso-270" value="24" style="text;html=1;align=center;verticalAlign=middle;whiteSpace=wrap;rounded=0;" vertex="1" parent="1">
          <mxGeometry x="990" y="80" width="60" height="30" as="geometry" />
        </mxCell>
        <mxCell id="TNspeRZDi3RnhtZ2Tgso-294" style="rounded=0;orthogonalLoop=1;jettySize=auto;html=1;strokeWidth=3;" edge="1" parent="1" target="TNspeRZDi3RnhtZ2Tgso-292">
          <mxGeometry relative="1" as="geometry">
            <mxPoint x="848.75" y="285" as="sourcePoint" />
          </mxGeometry>
        </mxCell>
        <mxCell id="TNspeRZDi3RnhtZ2Tgso-279" value="B" style="ellipse;whiteSpace=wrap;html=1;aspect=fixed;strokeWidth=4;fontSize=20;fontStyle=1" vertex="1" parent="1">
          <mxGeometry x="920" y="200" width="40" height="40" as="geometry" />
        </mxCell>
        <mxCell id="TNspeRZDi3RnhtZ2Tgso-280" value="&lt;font style=&quot;font-size: 20px;&quot;&gt;&lt;b&gt;6&lt;br&gt;&lt;/b&gt;&lt;/font&gt;" style="text;html=1;strokeColor=none;fillColor=none;align=center;verticalAlign=middle;whiteSpace=wrap;rounded=0;" vertex="1" parent="1">
          <mxGeometry x="590" y="205" width="60" height="30" as="geometry" />
        </mxCell>
        <mxCell id="TNspeRZDi3RnhtZ2Tgso-283" value="23" style="text;html=1;strokeColor=none;fillColor=none;align=center;verticalAlign=middle;whiteSpace=wrap;rounded=0;" vertex="1" parent="1">
          <mxGeometry x="910" y="240" width="60" height="30" as="geometry" />
        </mxCell>
        <mxCell id="TNspeRZDi3RnhtZ2Tgso-284" value="D" style="ellipse;whiteSpace=wrap;html=1;aspect=fixed;strokeWidth=4;fontSize=20;fontStyle=1;" vertex="1" parent="1">
          <mxGeometry x="1000" y="200" width="40" height="40" as="geometry" />
        </mxCell>
        <mxCell id="TNspeRZDi3RnhtZ2Tgso-285" value="24" style="text;html=1;align=center;verticalAlign=middle;whiteSpace=wrap;rounded=0;" vertex="1" parent="1">
          <mxGeometry x="990" y="240" width="60" height="30" as="geometry" />
        </mxCell>
        <mxCell id="TNspeRZDi3RnhtZ2Tgso-293" style="rounded=0;orthogonalLoop=1;jettySize=auto;html=1;strokeWidth=3;" edge="1" parent="1" source="TNspeRZDi3RnhtZ2Tgso-447" target="TNspeRZDi3RnhtZ2Tgso-292">
          <mxGeometry relative="1" as="geometry">
            <mxPoint x="751.25" y="285" as="sourcePoint" />
          </mxGeometry>
        </mxCell>
        <mxCell id="TNspeRZDi3RnhtZ2Tgso-291" value="" style="ellipse;whiteSpace=wrap;html=1;aspect=fixed;strokeWidth=4;fontSize=20;fontStyle=1" vertex="1" parent="1">
          <mxGeometry x="780" y="200" width="40" height="40" as="geometry" />
        </mxCell>
        <mxCell id="TNspeRZDi3RnhtZ2Tgso-292" value="40" style="text;html=1;strokeColor=none;fillColor=none;align=center;verticalAlign=middle;whiteSpace=wrap;rounded=0;fontStyle=1;fontColor=#FF0000;" vertex="1" parent="1">
          <mxGeometry x="770" y="205" width="60" height="30" as="geometry" />
        </mxCell>
        <mxCell id="TNspeRZDi3RnhtZ2Tgso-387" style="rounded=0;orthogonalLoop=1;jettySize=auto;html=1;strokeWidth=3;" edge="1" parent="1" source="TNspeRZDi3RnhtZ2Tgso-388">
          <mxGeometry relative="1" as="geometry">
            <mxPoint x="1322.5" y="820" as="targetPoint" />
          </mxGeometry>
        </mxCell>
        <mxCell id="TNspeRZDi3RnhtZ2Tgso-388" value="E" style="ellipse;whiteSpace=wrap;html=1;aspect=fixed;strokeWidth=4;fontSize=20;fontStyle=1;" vertex="1" parent="1">
          <mxGeometry x="1270" y="865" width="40" height="40" as="geometry" />
        </mxCell>
        <mxCell id="TNspeRZDi3RnhtZ2Tgso-389" style="rounded=0;orthogonalLoop=1;jettySize=auto;html=1;strokeWidth=3;" edge="1" parent="1" source="TNspeRZDi3RnhtZ2Tgso-402">
          <mxGeometry relative="1" as="geometry">
            <mxPoint x="1291.25" y="735" as="targetPoint" />
          </mxGeometry>
        </mxCell>
        <mxCell id="TNspeRZDi3RnhtZ2Tgso-390" value="A" style="ellipse;whiteSpace=wrap;html=1;aspect=fixed;strokeWidth=4;fontSize=20;fontStyle=1" vertex="1" parent="1">
          <mxGeometry x="1200" y="785" width="40" height="40" as="geometry" />
        </mxCell>
        <mxCell id="TNspeRZDi3RnhtZ2Tgso-392" value="B" style="ellipse;whiteSpace=wrap;html=1;aspect=fixed;strokeWidth=4;fontSize=20;fontStyle=1" vertex="1" parent="1">
          <mxGeometry x="1400" y="780" width="40" height="40" as="geometry" />
        </mxCell>
        <mxCell id="TNspeRZDi3RnhtZ2Tgso-393" value="010" style="text;html=1;strokeColor=none;fillColor=none;align=center;verticalAlign=middle;whiteSpace=wrap;rounded=0;fontStyle=0;fontColor=#000000;" vertex="1" parent="1">
          <mxGeometry x="1260" y="905" width="60" height="30" as="geometry" />
        </mxCell>
        <mxCell id="TNspeRZDi3RnhtZ2Tgso-394" value="00" style="text;html=1;strokeColor=none;fillColor=none;align=center;verticalAlign=middle;whiteSpace=wrap;rounded=0;fontStyle=0;fontColor=#000000;" vertex="1" parent="1">
          <mxGeometry x="1190" y="825" width="60" height="30" as="geometry" />
        </mxCell>
        <mxCell id="TNspeRZDi3RnhtZ2Tgso-395" value="10" style="text;html=1;strokeColor=none;fillColor=none;align=center;verticalAlign=middle;whiteSpace=wrap;rounded=0;fontStyle=0;fontColor=#000000;" vertex="1" parent="1">
          <mxGeometry x="1390" y="820" width="60" height="30" as="geometry" />
        </mxCell>
        <mxCell id="TNspeRZDi3RnhtZ2Tgso-396" style="rounded=0;orthogonalLoop=1;jettySize=auto;html=1;strokeWidth=3;" edge="1" parent="1" source="TNspeRZDi3RnhtZ2Tgso-397">
          <mxGeometry relative="1" as="geometry">
            <mxPoint x="1467.5" y="735" as="targetPoint" />
          </mxGeometry>
        </mxCell>
        <mxCell id="TNspeRZDi3RnhtZ2Tgso-397" value="D" style="ellipse;whiteSpace=wrap;html=1;aspect=fixed;strokeWidth=4;fontSize=20;fontStyle=1;" vertex="1" parent="1">
          <mxGeometry x="1480" y="780" width="40" height="40" as="geometry" />
        </mxCell>
        <mxCell id="TNspeRZDi3RnhtZ2Tgso-398" value="11" style="text;html=1;align=center;verticalAlign=middle;whiteSpace=wrap;rounded=0;fontStyle=0;fontColor=#000000;" vertex="1" parent="1">
          <mxGeometry x="1470" y="820" width="60" height="30" as="geometry" />
        </mxCell>
        <mxCell id="TNspeRZDi3RnhtZ2Tgso-399" style="rounded=0;orthogonalLoop=1;jettySize=auto;html=1;strokeWidth=3;" edge="1" parent="1" source="TNspeRZDi3RnhtZ2Tgso-400">
          <mxGeometry relative="1" as="geometry">
            <mxPoint x="1337.5" y="820" as="targetPoint" />
          </mxGeometry>
        </mxCell>
        <mxCell id="TNspeRZDi3RnhtZ2Tgso-400" value="C" style="ellipse;whiteSpace=wrap;html=1;aspect=fixed;strokeWidth=4;fontSize=20;fontStyle=1;" vertex="1" parent="1">
          <mxGeometry x="1350" y="865" width="40" height="40" as="geometry" />
        </mxCell>
        <mxCell id="TNspeRZDi3RnhtZ2Tgso-401" value="011" style="text;html=1;strokeColor=none;fillColor=none;align=center;verticalAlign=middle;whiteSpace=wrap;rounded=0;fontStyle=0;fontColor=#000000;" vertex="1" parent="1">
          <mxGeometry x="1340" y="905" width="60" height="30" as="geometry" />
        </mxCell>
        <mxCell id="TNspeRZDi3RnhtZ2Tgso-402" value="" style="ellipse;whiteSpace=wrap;html=1;aspect=fixed;strokeWidth=4;fontSize=20;fontStyle=1" vertex="1" parent="1">
          <mxGeometry x="1310" y="785" width="40" height="40" as="geometry" />
        </mxCell>
        <mxCell id="TNspeRZDi3RnhtZ2Tgso-403" style="rounded=0;orthogonalLoop=1;jettySize=auto;html=1;strokeWidth=3;" edge="1" parent="1">
          <mxGeometry relative="1" as="geometry">
            <mxPoint x="1231.25" y="785" as="sourcePoint" />
            <mxPoint x="1268.75" y="735" as="targetPoint" />
          </mxGeometry>
        </mxCell>
        <mxCell id="TNspeRZDi3RnhtZ2Tgso-405" value="" style="ellipse;whiteSpace=wrap;html=1;aspect=fixed;strokeWidth=4;fontSize=20;fontStyle=1" vertex="1" parent="1">
          <mxGeometry x="1260" y="700" width="40" height="40" as="geometry" />
        </mxCell>
        <mxCell id="TNspeRZDi3RnhtZ2Tgso-406" style="rounded=0;orthogonalLoop=1;jettySize=auto;html=1;strokeWidth=3;" edge="1" parent="1">
          <mxGeometry relative="1" as="geometry">
            <mxPoint x="1296.875" y="705" as="sourcePoint" />
            <mxPoint x="1353.125" y="655" as="targetPoint" />
          </mxGeometry>
        </mxCell>
        <mxCell id="TNspeRZDi3RnhtZ2Tgso-408" style="rounded=0;orthogonalLoop=1;jettySize=auto;html=1;strokeWidth=3;" edge="1" parent="1" source="TNspeRZDi3RnhtZ2Tgso-409">
          <mxGeometry relative="1" as="geometry">
            <mxPoint x="1386.875" y="655" as="targetPoint" />
          </mxGeometry>
        </mxCell>
        <mxCell id="TNspeRZDi3RnhtZ2Tgso-409" value="" style="ellipse;whiteSpace=wrap;html=1;aspect=fixed;strokeWidth=4;fontSize=20;fontStyle=1" vertex="1" parent="1">
          <mxGeometry x="1440" y="700" width="40" height="40" as="geometry" />
        </mxCell>
        <mxCell id="TNspeRZDi3RnhtZ2Tgso-411" value="" style="ellipse;whiteSpace=wrap;html=1;aspect=fixed;strokeWidth=4;fontSize=20;fontStyle=1" vertex="1" parent="1">
          <mxGeometry x="1350" y="620" width="40" height="40" as="geometry" />
        </mxCell>
        <mxCell id="TNspeRZDi3RnhtZ2Tgso-414" value="0" style="text;html=1;strokeColor=none;fillColor=none;align=center;verticalAlign=middle;whiteSpace=wrap;rounded=0;" vertex="1" parent="1">
          <mxGeometry x="1280" y="660" width="60" height="30" as="geometry" />
        </mxCell>
        <mxCell id="TNspeRZDi3RnhtZ2Tgso-415" value="0" style="text;html=1;strokeColor=none;fillColor=none;align=center;verticalAlign=middle;whiteSpace=wrap;rounded=0;" vertex="1" parent="1">
          <mxGeometry x="1210" y="740" width="60" height="30" as="geometry" />
        </mxCell>
        <mxCell id="TNspeRZDi3RnhtZ2Tgso-416" value="0" style="text;html=1;strokeColor=none;fillColor=none;align=center;verticalAlign=middle;whiteSpace=wrap;rounded=0;" vertex="1" parent="1">
          <mxGeometry x="1270" y="830" width="60" height="30" as="geometry" />
        </mxCell>
        <mxCell id="TNspeRZDi3RnhtZ2Tgso-418" value="" style="rounded=0;orthogonalLoop=1;jettySize=auto;html=1;strokeWidth=3;" edge="1" parent="1" source="TNspeRZDi3RnhtZ2Tgso-392">
          <mxGeometry relative="1" as="geometry">
            <mxPoint x="1429" y="782" as="sourcePoint" />
            <mxPoint x="1452.5" y="735" as="targetPoint" />
          </mxGeometry>
        </mxCell>
        <mxCell id="TNspeRZDi3RnhtZ2Tgso-417" value="0" style="text;html=1;strokeColor=none;fillColor=none;align=center;verticalAlign=middle;whiteSpace=wrap;rounded=0;" vertex="1" parent="1">
          <mxGeometry x="1400" y="745" width="60" height="30" as="geometry" />
        </mxCell>
        <mxCell id="TNspeRZDi3RnhtZ2Tgso-419" value="1" style="text;html=1;strokeColor=none;fillColor=none;align=center;verticalAlign=middle;whiteSpace=wrap;rounded=0;" vertex="1" parent="1">
          <mxGeometry x="1330" y="830" width="60" height="30" as="geometry" />
        </mxCell>
        <mxCell id="TNspeRZDi3RnhtZ2Tgso-420" value="1" style="text;html=1;strokeColor=none;fillColor=none;align=center;verticalAlign=middle;whiteSpace=wrap;rounded=0;" vertex="1" parent="1">
          <mxGeometry x="1290" y="740" width="60" height="30" as="geometry" />
        </mxCell>
        <mxCell id="TNspeRZDi3RnhtZ2Tgso-421" value="1" style="text;html=1;strokeColor=none;fillColor=none;align=center;verticalAlign=middle;whiteSpace=wrap;rounded=0;" vertex="1" parent="1">
          <mxGeometry x="1400" y="660" width="60" height="30" as="geometry" />
        </mxCell>
        <mxCell id="TNspeRZDi3RnhtZ2Tgso-422" value="1" style="text;html=1;strokeColor=none;fillColor=none;align=center;verticalAlign=middle;whiteSpace=wrap;rounded=0;" vertex="1" parent="1">
          <mxGeometry x="1460" y="745" width="60" height="30" as="geometry" />
        </mxCell>
        <mxCell id="TNspeRZDi3RnhtZ2Tgso-424" style="rounded=0;orthogonalLoop=1;jettySize=auto;html=1;strokeWidth=3;" edge="1" parent="1" source="TNspeRZDi3RnhtZ2Tgso-425" target="TNspeRZDi3RnhtZ2Tgso-436">
          <mxGeometry relative="1" as="geometry" />
        </mxCell>
        <mxCell id="TNspeRZDi3RnhtZ2Tgso-425" value="E" style="ellipse;whiteSpace=wrap;html=1;aspect=fixed;strokeWidth=4;fontSize=20;fontStyle=1;" vertex="1" parent="1">
          <mxGeometry x="240" y="920" width="40" height="40" as="geometry" />
        </mxCell>
        <mxCell id="TNspeRZDi3RnhtZ2Tgso-426" value="A" style="ellipse;whiteSpace=wrap;html=1;aspect=fixed;strokeWidth=4;fontSize=20;fontStyle=1;fillColor=#ffe6cc;strokeColor=#d79b00;" vertex="1" parent="1">
          <mxGeometry x="160" y="840" width="40" height="40" as="geometry" />
        </mxCell>
        <mxCell id="TNspeRZDi3RnhtZ2Tgso-427" value="B" style="ellipse;whiteSpace=wrap;html=1;aspect=fixed;strokeWidth=4;fontSize=20;fontStyle=1" vertex="1" parent="1">
          <mxGeometry x="400" y="840" width="40" height="40" as="geometry" />
        </mxCell>
        <mxCell id="TNspeRZDi3RnhtZ2Tgso-428" value="&lt;font style=&quot;font-size: 20px;&quot;&gt;&lt;b&gt;5&lt;br&gt;&lt;/b&gt;&lt;/font&gt;" style="text;html=1;strokeColor=none;fillColor=none;align=center;verticalAlign=middle;whiteSpace=wrap;rounded=0;" vertex="1" parent="1">
          <mxGeometry x="70" y="845" width="60" height="30" as="geometry" />
        </mxCell>
        <mxCell id="TNspeRZDi3RnhtZ2Tgso-429" value="20" style="text;html=1;strokeColor=none;fillColor=none;align=center;verticalAlign=middle;whiteSpace=wrap;rounded=0;fontStyle=0;fontColor=#000000;" vertex="1" parent="1">
          <mxGeometry x="150" y="880" width="60" height="30" as="geometry" />
        </mxCell>
        <mxCell id="TNspeRZDi3RnhtZ2Tgso-430" value="23" style="text;html=1;strokeColor=none;fillColor=none;align=center;verticalAlign=middle;whiteSpace=wrap;rounded=0;" vertex="1" parent="1">
          <mxGeometry x="390" y="880" width="60" height="30" as="geometry" />
        </mxCell>
        <mxCell id="TNspeRZDi3RnhtZ2Tgso-431" value="D" style="ellipse;whiteSpace=wrap;html=1;aspect=fixed;strokeWidth=4;fontSize=20;fontStyle=1;" vertex="1" parent="1">
          <mxGeometry x="480" y="840" width="40" height="40" as="geometry" />
        </mxCell>
        <mxCell id="TNspeRZDi3RnhtZ2Tgso-432" value="24" style="text;html=1;align=center;verticalAlign=middle;whiteSpace=wrap;rounded=0;" vertex="1" parent="1">
          <mxGeometry x="470" y="880" width="60" height="30" as="geometry" />
        </mxCell>
        <mxCell id="TNspeRZDi3RnhtZ2Tgso-433" style="rounded=0;orthogonalLoop=1;jettySize=auto;html=1;strokeWidth=3;" edge="1" parent="1" source="TNspeRZDi3RnhtZ2Tgso-434" target="TNspeRZDi3RnhtZ2Tgso-436">
          <mxGeometry relative="1" as="geometry" />
        </mxCell>
        <mxCell id="TNspeRZDi3RnhtZ2Tgso-434" value="C" style="ellipse;whiteSpace=wrap;html=1;aspect=fixed;strokeWidth=4;fontSize=20;fontStyle=1;" vertex="1" parent="1">
          <mxGeometry x="320" y="920" width="40" height="40" as="geometry" />
        </mxCell>
        <mxCell id="TNspeRZDi3RnhtZ2Tgso-435" value="" style="ellipse;whiteSpace=wrap;html=1;aspect=fixed;strokeWidth=4;fontSize=20;fontStyle=1;fillColor=#ffe6cc;strokeColor=#d79b00;" vertex="1" parent="1">
          <mxGeometry x="280" y="840" width="40" height="40" as="geometry" />
        </mxCell>
        <mxCell id="TNspeRZDi3RnhtZ2Tgso-436" value="20" style="text;html=1;align=center;verticalAlign=middle;whiteSpace=wrap;rounded=0;fontStyle=0;" vertex="1" parent="1">
          <mxGeometry x="270" y="845" width="60" height="30" as="geometry" />
        </mxCell>
        <mxCell id="TNspeRZDi3RnhtZ2Tgso-437" style="rounded=0;orthogonalLoop=1;jettySize=auto;html=1;strokeWidth=3;" edge="1" parent="1" source="TNspeRZDi3RnhtZ2Tgso-438" target="TNspeRZDi3RnhtZ2Tgso-444">
          <mxGeometry relative="1" as="geometry" />
        </mxCell>
        <mxCell id="TNspeRZDi3RnhtZ2Tgso-438" value="E" style="ellipse;whiteSpace=wrap;html=1;aspect=fixed;strokeWidth=4;fontSize=20;fontStyle=1;" vertex="1" parent="1">
          <mxGeometry x="765" y="120" width="40" height="40" as="geometry" />
        </mxCell>
        <mxCell id="TNspeRZDi3RnhtZ2Tgso-439" value="A" style="ellipse;whiteSpace=wrap;html=1;aspect=fixed;strokeWidth=4;fontSize=20;fontStyle=1" vertex="1" parent="1">
          <mxGeometry x="685" y="40" width="40" height="40" as="geometry" />
        </mxCell>
        <mxCell id="TNspeRZDi3RnhtZ2Tgso-440" value="20" style="text;html=1;strokeColor=none;fillColor=none;align=center;verticalAlign=middle;whiteSpace=wrap;rounded=0;fontStyle=1;fontColor=#FF0000;" vertex="1" parent="1">
          <mxGeometry x="675" y="80" width="60" height="30" as="geometry" />
        </mxCell>
        <mxCell id="TNspeRZDi3RnhtZ2Tgso-441" style="rounded=0;orthogonalLoop=1;jettySize=auto;html=1;strokeWidth=3;" edge="1" parent="1" source="TNspeRZDi3RnhtZ2Tgso-442" target="TNspeRZDi3RnhtZ2Tgso-444">
          <mxGeometry relative="1" as="geometry" />
        </mxCell>
        <mxCell id="TNspeRZDi3RnhtZ2Tgso-442" value="C" style="ellipse;whiteSpace=wrap;html=1;aspect=fixed;strokeWidth=4;fontSize=20;fontStyle=1;" vertex="1" parent="1">
          <mxGeometry x="845" y="120" width="40" height="40" as="geometry" />
        </mxCell>
        <mxCell id="TNspeRZDi3RnhtZ2Tgso-443" value="" style="ellipse;whiteSpace=wrap;html=1;aspect=fixed;strokeWidth=4;fontSize=20;fontStyle=1" vertex="1" parent="1">
          <mxGeometry x="805" y="40" width="40" height="40" as="geometry" />
        </mxCell>
        <mxCell id="TNspeRZDi3RnhtZ2Tgso-444" value="20" style="text;html=1;strokeColor=none;fillColor=none;align=center;verticalAlign=middle;whiteSpace=wrap;rounded=0;fontStyle=1;fontColor=#FF0000;" vertex="1" parent="1">
          <mxGeometry x="795" y="45" width="60" height="30" as="geometry" />
        </mxCell>
        <mxCell id="TNspeRZDi3RnhtZ2Tgso-445" style="rounded=0;orthogonalLoop=1;jettySize=auto;html=1;strokeWidth=3;" edge="1" parent="1" source="TNspeRZDi3RnhtZ2Tgso-446">
          <mxGeometry relative="1" as="geometry">
            <mxPoint x="852.5" y="315" as="targetPoint" />
          </mxGeometry>
        </mxCell>
        <mxCell id="TNspeRZDi3RnhtZ2Tgso-446" value="E" style="ellipse;whiteSpace=wrap;html=1;aspect=fixed;strokeWidth=4;fontSize=20;fontStyle=1;" vertex="1" parent="1">
          <mxGeometry x="800" y="360" width="40" height="40" as="geometry" />
        </mxCell>
        <mxCell id="TNspeRZDi3RnhtZ2Tgso-447" value="A" style="ellipse;whiteSpace=wrap;html=1;aspect=fixed;strokeWidth=4;fontSize=20;fontStyle=1" vertex="1" parent="1">
          <mxGeometry x="720" y="280" width="40" height="40" as="geometry" />
        </mxCell>
        <mxCell id="TNspeRZDi3RnhtZ2Tgso-449" style="rounded=0;orthogonalLoop=1;jettySize=auto;html=1;strokeWidth=3;" edge="1" parent="1" source="TNspeRZDi3RnhtZ2Tgso-450">
          <mxGeometry relative="1" as="geometry">
            <mxPoint x="867.5" y="315" as="targetPoint" />
          </mxGeometry>
        </mxCell>
        <mxCell id="TNspeRZDi3RnhtZ2Tgso-450" value="C" style="ellipse;whiteSpace=wrap;html=1;aspect=fixed;strokeWidth=4;fontSize=20;fontStyle=1;" vertex="1" parent="1">
          <mxGeometry x="880" y="360" width="40" height="40" as="geometry" />
        </mxCell>
        <mxCell id="TNspeRZDi3RnhtZ2Tgso-451" value="" style="ellipse;whiteSpace=wrap;html=1;aspect=fixed;strokeWidth=4;fontSize=20;fontStyle=1" vertex="1" parent="1">
          <mxGeometry x="840" y="280" width="40" height="40" as="geometry" />
        </mxCell>
        <mxCell id="TNspeRZDi3RnhtZ2Tgso-453" value="" style="endArrow=none;html=1;rounded=0;strokeWidth=3;" edge="1" parent="1">
          <mxGeometry width="50" height="50" relative="1" as="geometry">
            <mxPoint x="560" y="960" as="sourcePoint" />
            <mxPoint x="560" y="40" as="targetPoint" />
          </mxGeometry>
        </mxCell>
        <mxCell id="TNspeRZDi3RnhtZ2Tgso-454" style="rounded=0;orthogonalLoop=1;jettySize=auto;html=1;strokeWidth=3;" edge="1" parent="1" target="TNspeRZDi3RnhtZ2Tgso-462">
          <mxGeometry relative="1" as="geometry">
            <mxPoint x="848.75" y="525" as="sourcePoint" />
          </mxGeometry>
        </mxCell>
        <mxCell id="TNspeRZDi3RnhtZ2Tgso-455" value="B" style="ellipse;whiteSpace=wrap;html=1;aspect=fixed;strokeWidth=4;fontSize=20;fontStyle=1" vertex="1" parent="1">
          <mxGeometry x="920" y="440" width="40" height="40" as="geometry" />
        </mxCell>
        <mxCell id="TNspeRZDi3RnhtZ2Tgso-456" value="&lt;font style=&quot;font-size: 20px;&quot;&gt;&lt;b&gt;7&lt;br&gt;&lt;/b&gt;&lt;/font&gt;" style="text;html=1;strokeColor=none;fillColor=none;align=center;verticalAlign=middle;whiteSpace=wrap;rounded=0;" vertex="1" parent="1">
          <mxGeometry x="590" y="445" width="60" height="30" as="geometry" />
        </mxCell>
        <mxCell id="TNspeRZDi3RnhtZ2Tgso-457" value="23" style="text;html=1;strokeColor=none;fillColor=none;align=center;verticalAlign=middle;whiteSpace=wrap;rounded=0;fontStyle=1;fontColor=#FF0000;" vertex="1" parent="1">
          <mxGeometry x="910" y="480" width="60" height="30" as="geometry" />
        </mxCell>
        <mxCell id="TNspeRZDi3RnhtZ2Tgso-458" value="D" style="ellipse;whiteSpace=wrap;html=1;aspect=fixed;strokeWidth=4;fontSize=20;fontStyle=1;" vertex="1" parent="1">
          <mxGeometry x="1000" y="440" width="40" height="40" as="geometry" />
        </mxCell>
        <mxCell id="TNspeRZDi3RnhtZ2Tgso-459" value="24" style="text;html=1;align=center;verticalAlign=middle;whiteSpace=wrap;rounded=0;fontStyle=1;fontColor=#FF0000;" vertex="1" parent="1">
          <mxGeometry x="990" y="480" width="60" height="30" as="geometry" />
        </mxCell>
        <mxCell id="TNspeRZDi3RnhtZ2Tgso-460" style="rounded=0;orthogonalLoop=1;jettySize=auto;html=1;strokeWidth=3;" edge="1" parent="1" source="TNspeRZDi3RnhtZ2Tgso-465" target="TNspeRZDi3RnhtZ2Tgso-462">
          <mxGeometry relative="1" as="geometry">
            <mxPoint x="751.25" y="525" as="sourcePoint" />
          </mxGeometry>
        </mxCell>
        <mxCell id="TNspeRZDi3RnhtZ2Tgso-461" value="" style="ellipse;whiteSpace=wrap;html=1;aspect=fixed;strokeWidth=4;fontSize=20;fontStyle=1" vertex="1" parent="1">
          <mxGeometry x="780" y="440" width="40" height="40" as="geometry" />
        </mxCell>
        <mxCell id="TNspeRZDi3RnhtZ2Tgso-462" value="40" style="text;html=1;strokeColor=none;fillColor=none;align=center;verticalAlign=middle;whiteSpace=wrap;rounded=0;fontStyle=0;fontColor=#000000;" vertex="1" parent="1">
          <mxGeometry x="770" y="445" width="60" height="30" as="geometry" />
        </mxCell>
        <mxCell id="TNspeRZDi3RnhtZ2Tgso-463" style="rounded=0;orthogonalLoop=1;jettySize=auto;html=1;strokeWidth=3;" edge="1" parent="1" source="TNspeRZDi3RnhtZ2Tgso-464">
          <mxGeometry relative="1" as="geometry">
            <mxPoint x="852.5" y="555" as="targetPoint" />
          </mxGeometry>
        </mxCell>
        <mxCell id="TNspeRZDi3RnhtZ2Tgso-464" value="E" style="ellipse;whiteSpace=wrap;html=1;aspect=fixed;strokeWidth=4;fontSize=20;fontStyle=1;" vertex="1" parent="1">
          <mxGeometry x="800" y="600" width="40" height="40" as="geometry" />
        </mxCell>
        <mxCell id="TNspeRZDi3RnhtZ2Tgso-465" value="A" style="ellipse;whiteSpace=wrap;html=1;aspect=fixed;strokeWidth=4;fontSize=20;fontStyle=1" vertex="1" parent="1">
          <mxGeometry x="720" y="520" width="40" height="40" as="geometry" />
        </mxCell>
        <mxCell id="TNspeRZDi3RnhtZ2Tgso-466" style="rounded=0;orthogonalLoop=1;jettySize=auto;html=1;strokeWidth=3;" edge="1" parent="1" source="TNspeRZDi3RnhtZ2Tgso-467">
          <mxGeometry relative="1" as="geometry">
            <mxPoint x="867.5" y="555" as="targetPoint" />
          </mxGeometry>
        </mxCell>
        <mxCell id="TNspeRZDi3RnhtZ2Tgso-467" value="C" style="ellipse;whiteSpace=wrap;html=1;aspect=fixed;strokeWidth=4;fontSize=20;fontStyle=1;" vertex="1" parent="1">
          <mxGeometry x="880" y="600" width="40" height="40" as="geometry" />
        </mxCell>
        <mxCell id="TNspeRZDi3RnhtZ2Tgso-468" value="" style="ellipse;whiteSpace=wrap;html=1;aspect=fixed;strokeWidth=4;fontSize=20;fontStyle=1" vertex="1" parent="1">
          <mxGeometry x="840" y="520" width="40" height="40" as="geometry" />
        </mxCell>
        <mxCell id="TNspeRZDi3RnhtZ2Tgso-469" style="rounded=0;orthogonalLoop=1;jettySize=auto;html=1;strokeWidth=3;" edge="1" parent="1">
          <mxGeometry relative="1" as="geometry">
            <mxPoint x="848.75" y="765" as="sourcePoint" />
            <mxPoint x="811.25" y="715" as="targetPoint" />
          </mxGeometry>
        </mxCell>
        <mxCell id="TNspeRZDi3RnhtZ2Tgso-488" style="rounded=0;orthogonalLoop=1;jettySize=auto;html=1;strokeWidth=3;" edge="1" parent="1" source="TNspeRZDi3RnhtZ2Tgso-470" target="TNspeRZDi3RnhtZ2Tgso-487">
          <mxGeometry relative="1" as="geometry" />
        </mxCell>
        <mxCell id="TNspeRZDi3RnhtZ2Tgso-470" value="B" style="ellipse;whiteSpace=wrap;html=1;aspect=fixed;strokeWidth=4;fontSize=20;fontStyle=1" vertex="1" parent="1">
          <mxGeometry x="920" y="760" width="40" height="40" as="geometry" />
        </mxCell>
        <mxCell id="TNspeRZDi3RnhtZ2Tgso-471" value="&lt;font style=&quot;font-size: 20px;&quot;&gt;&lt;b&gt;7&lt;br&gt;&lt;/b&gt;&lt;/font&gt;" style="text;html=1;strokeColor=none;fillColor=none;align=center;verticalAlign=middle;whiteSpace=wrap;rounded=0;" vertex="1" parent="1">
          <mxGeometry x="590" y="685" width="60" height="30" as="geometry" />
        </mxCell>
        <mxCell id="TNspeRZDi3RnhtZ2Tgso-489" style="rounded=0;orthogonalLoop=1;jettySize=auto;html=1;strokeWidth=3;" edge="1" parent="1" source="TNspeRZDi3RnhtZ2Tgso-473" target="TNspeRZDi3RnhtZ2Tgso-487">
          <mxGeometry relative="1" as="geometry" />
        </mxCell>
        <mxCell id="TNspeRZDi3RnhtZ2Tgso-473" value="D" style="ellipse;whiteSpace=wrap;html=1;aspect=fixed;strokeWidth=4;fontSize=20;fontStyle=1;" vertex="1" parent="1">
          <mxGeometry x="1000" y="760" width="40" height="40" as="geometry" />
        </mxCell>
        <mxCell id="TNspeRZDi3RnhtZ2Tgso-475" style="rounded=0;orthogonalLoop=1;jettySize=auto;html=1;strokeWidth=3;" edge="1" parent="1" source="TNspeRZDi3RnhtZ2Tgso-480">
          <mxGeometry relative="1" as="geometry">
            <mxPoint x="751.25" y="765" as="sourcePoint" />
            <mxPoint x="788.75" y="715" as="targetPoint" />
          </mxGeometry>
        </mxCell>
        <mxCell id="TNspeRZDi3RnhtZ2Tgso-478" style="rounded=0;orthogonalLoop=1;jettySize=auto;html=1;strokeWidth=3;" edge="1" parent="1" source="TNspeRZDi3RnhtZ2Tgso-479">
          <mxGeometry relative="1" as="geometry">
            <mxPoint x="852.5" y="795" as="targetPoint" />
          </mxGeometry>
        </mxCell>
        <mxCell id="TNspeRZDi3RnhtZ2Tgso-479" value="E" style="ellipse;whiteSpace=wrap;html=1;aspect=fixed;strokeWidth=4;fontSize=20;fontStyle=1;" vertex="1" parent="1">
          <mxGeometry x="800" y="840" width="40" height="40" as="geometry" />
        </mxCell>
        <mxCell id="TNspeRZDi3RnhtZ2Tgso-480" value="A" style="ellipse;whiteSpace=wrap;html=1;aspect=fixed;strokeWidth=4;fontSize=20;fontStyle=1" vertex="1" parent="1">
          <mxGeometry x="720" y="760" width="40" height="40" as="geometry" />
        </mxCell>
        <mxCell id="TNspeRZDi3RnhtZ2Tgso-481" style="rounded=0;orthogonalLoop=1;jettySize=auto;html=1;strokeWidth=3;" edge="1" parent="1" source="TNspeRZDi3RnhtZ2Tgso-482">
          <mxGeometry relative="1" as="geometry">
            <mxPoint x="867.5" y="795" as="targetPoint" />
          </mxGeometry>
        </mxCell>
        <mxCell id="TNspeRZDi3RnhtZ2Tgso-482" value="C" style="ellipse;whiteSpace=wrap;html=1;aspect=fixed;strokeWidth=4;fontSize=20;fontStyle=1;" vertex="1" parent="1">
          <mxGeometry x="880" y="840" width="40" height="40" as="geometry" />
        </mxCell>
        <mxCell id="TNspeRZDi3RnhtZ2Tgso-483" value="" style="ellipse;whiteSpace=wrap;html=1;aspect=fixed;strokeWidth=4;fontSize=20;fontStyle=1" vertex="1" parent="1">
          <mxGeometry x="840" y="760" width="40" height="40" as="geometry" />
        </mxCell>
        <mxCell id="TNspeRZDi3RnhtZ2Tgso-484" value="" style="ellipse;whiteSpace=wrap;html=1;aspect=fixed;strokeWidth=4;fontSize=20;fontStyle=1" vertex="1" parent="1">
          <mxGeometry x="780" y="680" width="40" height="40" as="geometry" />
        </mxCell>
        <mxCell id="TNspeRZDi3RnhtZ2Tgso-485" value="40" style="text;html=1;strokeColor=none;fillColor=none;align=center;verticalAlign=middle;whiteSpace=wrap;rounded=0;fontStyle=0;fontColor=#000000;" vertex="1" parent="1">
          <mxGeometry x="770" y="685" width="60" height="30" as="geometry" />
        </mxCell>
        <mxCell id="TNspeRZDi3RnhtZ2Tgso-486" value="" style="ellipse;whiteSpace=wrap;html=1;aspect=fixed;strokeWidth=4;fontSize=20;fontStyle=1" vertex="1" parent="1">
          <mxGeometry x="960" y="680" width="40" height="40" as="geometry" />
        </mxCell>
        <mxCell id="TNspeRZDi3RnhtZ2Tgso-487" value="47" style="text;html=1;strokeColor=none;fillColor=none;align=center;verticalAlign=middle;whiteSpace=wrap;rounded=0;fontStyle=1;fontColor=#FF0000;" vertex="1" parent="1">
          <mxGeometry x="950" y="685" width="60" height="30" as="geometry" />
        </mxCell>
        <mxCell id="TNspeRZDi3RnhtZ2Tgso-490" value="" style="endArrow=none;html=1;rounded=0;strokeWidth=3;" edge="1" parent="1">
          <mxGeometry width="50" height="50" relative="1" as="geometry">
            <mxPoint x="1080" y="960" as="sourcePoint" />
            <mxPoint x="1080" y="40" as="targetPoint" />
          </mxGeometry>
        </mxCell>
        <mxCell id="TNspeRZDi3RnhtZ2Tgso-491" style="rounded=0;orthogonalLoop=1;jettySize=auto;html=1;strokeWidth=3;" edge="1" parent="1">
          <mxGeometry relative="1" as="geometry">
            <mxPoint x="1368.75" y="125" as="sourcePoint" />
            <mxPoint x="1331.25" y="75" as="targetPoint" />
          </mxGeometry>
        </mxCell>
        <mxCell id="TNspeRZDi3RnhtZ2Tgso-492" style="rounded=0;orthogonalLoop=1;jettySize=auto;html=1;strokeWidth=3;" edge="1" parent="1" source="TNspeRZDi3RnhtZ2Tgso-493" target="TNspeRZDi3RnhtZ2Tgso-507">
          <mxGeometry relative="1" as="geometry" />
        </mxCell>
        <mxCell id="TNspeRZDi3RnhtZ2Tgso-493" value="B" style="ellipse;whiteSpace=wrap;html=1;aspect=fixed;strokeWidth=4;fontSize=20;fontStyle=1" vertex="1" parent="1">
          <mxGeometry x="1440" y="120" width="40" height="40" as="geometry" />
        </mxCell>
        <mxCell id="TNspeRZDi3RnhtZ2Tgso-494" value="&lt;font style=&quot;font-size: 20px;&quot;&gt;&lt;b&gt;7&lt;br&gt;&lt;/b&gt;&lt;/font&gt;" style="text;html=1;strokeColor=none;fillColor=none;align=center;verticalAlign=middle;whiteSpace=wrap;rounded=0;" vertex="1" parent="1">
          <mxGeometry x="1110" y="45" width="60" height="30" as="geometry" />
        </mxCell>
        <mxCell id="TNspeRZDi3RnhtZ2Tgso-495" style="rounded=0;orthogonalLoop=1;jettySize=auto;html=1;strokeWidth=3;" edge="1" parent="1" source="TNspeRZDi3RnhtZ2Tgso-496" target="TNspeRZDi3RnhtZ2Tgso-507">
          <mxGeometry relative="1" as="geometry" />
        </mxCell>
        <mxCell id="TNspeRZDi3RnhtZ2Tgso-496" value="D" style="ellipse;whiteSpace=wrap;html=1;aspect=fixed;strokeWidth=4;fontSize=20;fontStyle=1;" vertex="1" parent="1">
          <mxGeometry x="1520" y="120" width="40" height="40" as="geometry" />
        </mxCell>
        <mxCell id="TNspeRZDi3RnhtZ2Tgso-497" style="rounded=0;orthogonalLoop=1;jettySize=auto;html=1;strokeWidth=3;" edge="1" parent="1" source="TNspeRZDi3RnhtZ2Tgso-500">
          <mxGeometry relative="1" as="geometry">
            <mxPoint x="1271.25" y="125" as="sourcePoint" />
            <mxPoint x="1308.75" y="75" as="targetPoint" />
          </mxGeometry>
        </mxCell>
        <mxCell id="TNspeRZDi3RnhtZ2Tgso-498" style="rounded=0;orthogonalLoop=1;jettySize=auto;html=1;strokeWidth=3;" edge="1" parent="1" source="TNspeRZDi3RnhtZ2Tgso-499">
          <mxGeometry relative="1" as="geometry">
            <mxPoint x="1372.5" y="155" as="targetPoint" />
          </mxGeometry>
        </mxCell>
        <mxCell id="TNspeRZDi3RnhtZ2Tgso-499" value="E" style="ellipse;whiteSpace=wrap;html=1;aspect=fixed;strokeWidth=4;fontSize=20;fontStyle=1;" vertex="1" parent="1">
          <mxGeometry x="1320" y="200" width="40" height="40" as="geometry" />
        </mxCell>
        <mxCell id="TNspeRZDi3RnhtZ2Tgso-500" value="A" style="ellipse;whiteSpace=wrap;html=1;aspect=fixed;strokeWidth=4;fontSize=20;fontStyle=1" vertex="1" parent="1">
          <mxGeometry x="1240" y="120" width="40" height="40" as="geometry" />
        </mxCell>
        <mxCell id="TNspeRZDi3RnhtZ2Tgso-501" style="rounded=0;orthogonalLoop=1;jettySize=auto;html=1;strokeWidth=3;" edge="1" parent="1" source="TNspeRZDi3RnhtZ2Tgso-502">
          <mxGeometry relative="1" as="geometry">
            <mxPoint x="1387.5" y="155" as="targetPoint" />
          </mxGeometry>
        </mxCell>
        <mxCell id="TNspeRZDi3RnhtZ2Tgso-502" value="C" style="ellipse;whiteSpace=wrap;html=1;aspect=fixed;strokeWidth=4;fontSize=20;fontStyle=1;" vertex="1" parent="1">
          <mxGeometry x="1400" y="200" width="40" height="40" as="geometry" />
        </mxCell>
        <mxCell id="TNspeRZDi3RnhtZ2Tgso-503" value="" style="ellipse;whiteSpace=wrap;html=1;aspect=fixed;strokeWidth=4;fontSize=20;fontStyle=1" vertex="1" parent="1">
          <mxGeometry x="1360" y="120" width="40" height="40" as="geometry" />
        </mxCell>
        <mxCell id="TNspeRZDi3RnhtZ2Tgso-504" value="" style="ellipse;whiteSpace=wrap;html=1;aspect=fixed;strokeWidth=4;fontSize=20;fontStyle=1" vertex="1" parent="1">
          <mxGeometry x="1300" y="40" width="40" height="40" as="geometry" />
        </mxCell>
        <mxCell id="TNspeRZDi3RnhtZ2Tgso-505" value="40" style="text;html=1;strokeColor=none;fillColor=none;align=center;verticalAlign=middle;whiteSpace=wrap;rounded=0;fontStyle=1;fontColor=#FF0000;" vertex="1" parent="1">
          <mxGeometry x="1290" y="45" width="60" height="30" as="geometry" />
        </mxCell>
        <mxCell id="TNspeRZDi3RnhtZ2Tgso-506" value="" style="ellipse;whiteSpace=wrap;html=1;aspect=fixed;strokeWidth=4;fontSize=20;fontStyle=1" vertex="1" parent="1">
          <mxGeometry x="1480" y="40" width="40" height="40" as="geometry" />
        </mxCell>
        <mxCell id="TNspeRZDi3RnhtZ2Tgso-507" value="47" style="text;html=1;strokeColor=none;fillColor=none;align=center;verticalAlign=middle;whiteSpace=wrap;rounded=0;fontStyle=1;fontColor=#FF0000;" vertex="1" parent="1">
          <mxGeometry x="1470" y="45" width="60" height="30" as="geometry" />
        </mxCell>
        <mxCell id="TNspeRZDi3RnhtZ2Tgso-508" style="rounded=0;orthogonalLoop=1;jettySize=auto;html=1;strokeWidth=3;" edge="1" parent="1">
          <mxGeometry relative="1" as="geometry">
            <mxPoint x="1368.75" y="445" as="sourcePoint" />
            <mxPoint x="1331.25" y="395" as="targetPoint" />
          </mxGeometry>
        </mxCell>
        <mxCell id="TNspeRZDi3RnhtZ2Tgso-509" style="rounded=0;orthogonalLoop=1;jettySize=auto;html=1;strokeWidth=3;" edge="1" parent="1" source="TNspeRZDi3RnhtZ2Tgso-510">
          <mxGeometry relative="1" as="geometry">
            <mxPoint x="1492.5" y="395" as="targetPoint" />
          </mxGeometry>
        </mxCell>
        <mxCell id="TNspeRZDi3RnhtZ2Tgso-510" value="B" style="ellipse;whiteSpace=wrap;html=1;aspect=fixed;strokeWidth=4;fontSize=20;fontStyle=1" vertex="1" parent="1">
          <mxGeometry x="1440" y="440" width="40" height="40" as="geometry" />
        </mxCell>
        <mxCell id="TNspeRZDi3RnhtZ2Tgso-511" value="&lt;font style=&quot;font-size: 20px;&quot;&gt;&lt;b&gt;7&lt;br&gt;&lt;/b&gt;&lt;/font&gt;" style="text;html=1;strokeColor=none;fillColor=none;align=center;verticalAlign=middle;whiteSpace=wrap;rounded=0;" vertex="1" parent="1">
          <mxGeometry x="1110" y="285" width="60" height="30" as="geometry" />
        </mxCell>
        <mxCell id="TNspeRZDi3RnhtZ2Tgso-512" style="rounded=0;orthogonalLoop=1;jettySize=auto;html=1;strokeWidth=3;" edge="1" parent="1" source="TNspeRZDi3RnhtZ2Tgso-513">
          <mxGeometry relative="1" as="geometry">
            <mxPoint x="1507.5" y="395" as="targetPoint" />
          </mxGeometry>
        </mxCell>
        <mxCell id="TNspeRZDi3RnhtZ2Tgso-513" value="D" style="ellipse;whiteSpace=wrap;html=1;aspect=fixed;strokeWidth=4;fontSize=20;fontStyle=1;" vertex="1" parent="1">
          <mxGeometry x="1520" y="440" width="40" height="40" as="geometry" />
        </mxCell>
        <mxCell id="TNspeRZDi3RnhtZ2Tgso-514" style="rounded=0;orthogonalLoop=1;jettySize=auto;html=1;strokeWidth=3;" edge="1" parent="1" source="TNspeRZDi3RnhtZ2Tgso-517">
          <mxGeometry relative="1" as="geometry">
            <mxPoint x="1271.25" y="445" as="sourcePoint" />
            <mxPoint x="1308.75" y="395" as="targetPoint" />
          </mxGeometry>
        </mxCell>
        <mxCell id="TNspeRZDi3RnhtZ2Tgso-515" style="rounded=0;orthogonalLoop=1;jettySize=auto;html=1;strokeWidth=3;" edge="1" parent="1" source="TNspeRZDi3RnhtZ2Tgso-516">
          <mxGeometry relative="1" as="geometry">
            <mxPoint x="1372.5" y="475" as="targetPoint" />
          </mxGeometry>
        </mxCell>
        <mxCell id="TNspeRZDi3RnhtZ2Tgso-516" value="E" style="ellipse;whiteSpace=wrap;html=1;aspect=fixed;strokeWidth=4;fontSize=20;fontStyle=1;" vertex="1" parent="1">
          <mxGeometry x="1320" y="520" width="40" height="40" as="geometry" />
        </mxCell>
        <mxCell id="TNspeRZDi3RnhtZ2Tgso-517" value="A" style="ellipse;whiteSpace=wrap;html=1;aspect=fixed;strokeWidth=4;fontSize=20;fontStyle=1" vertex="1" parent="1">
          <mxGeometry x="1240" y="440" width="40" height="40" as="geometry" />
        </mxCell>
        <mxCell id="TNspeRZDi3RnhtZ2Tgso-518" style="rounded=0;orthogonalLoop=1;jettySize=auto;html=1;strokeWidth=3;" edge="1" parent="1" source="TNspeRZDi3RnhtZ2Tgso-519">
          <mxGeometry relative="1" as="geometry">
            <mxPoint x="1387.5" y="475" as="targetPoint" />
          </mxGeometry>
        </mxCell>
        <mxCell id="TNspeRZDi3RnhtZ2Tgso-519" value="C" style="ellipse;whiteSpace=wrap;html=1;aspect=fixed;strokeWidth=4;fontSize=20;fontStyle=1;" vertex="1" parent="1">
          <mxGeometry x="1400" y="520" width="40" height="40" as="geometry" />
        </mxCell>
        <mxCell id="TNspeRZDi3RnhtZ2Tgso-520" value="" style="ellipse;whiteSpace=wrap;html=1;aspect=fixed;strokeWidth=4;fontSize=20;fontStyle=1" vertex="1" parent="1">
          <mxGeometry x="1360" y="440" width="40" height="40" as="geometry" />
        </mxCell>
        <mxCell id="TNspeRZDi3RnhtZ2Tgso-521" value="" style="ellipse;whiteSpace=wrap;html=1;aspect=fixed;strokeWidth=4;fontSize=20;fontStyle=1" vertex="1" parent="1">
          <mxGeometry x="1300" y="360" width="40" height="40" as="geometry" />
        </mxCell>
        <mxCell id="TNspeRZDi3RnhtZ2Tgso-527" style="rounded=0;orthogonalLoop=1;jettySize=auto;html=1;strokeWidth=3;" edge="1" parent="1" target="TNspeRZDi3RnhtZ2Tgso-526">
          <mxGeometry relative="1" as="geometry">
            <mxPoint x="1336.875" y="365" as="sourcePoint" />
          </mxGeometry>
        </mxCell>
        <mxCell id="TNspeRZDi3RnhtZ2Tgso-523" value="" style="ellipse;whiteSpace=wrap;html=1;aspect=fixed;strokeWidth=4;fontSize=20;fontStyle=1" vertex="1" parent="1">
          <mxGeometry x="1480" y="360" width="40" height="40" as="geometry" />
        </mxCell>
        <mxCell id="TNspeRZDi3RnhtZ2Tgso-528" style="rounded=0;orthogonalLoop=1;jettySize=auto;html=1;strokeWidth=3;" edge="1" parent="1" target="TNspeRZDi3RnhtZ2Tgso-526">
          <mxGeometry relative="1" as="geometry">
            <mxPoint x="1483.125" y="365" as="sourcePoint" />
          </mxGeometry>
        </mxCell>
        <mxCell id="TNspeRZDi3RnhtZ2Tgso-525" value="" style="ellipse;whiteSpace=wrap;html=1;aspect=fixed;strokeWidth=4;fontSize=20;fontStyle=1" vertex="1" parent="1">
          <mxGeometry x="1390" y="280" width="40" height="40" as="geometry" />
        </mxCell>
        <mxCell id="TNspeRZDi3RnhtZ2Tgso-526" value="87" style="text;html=1;strokeColor=none;fillColor=none;align=center;verticalAlign=middle;whiteSpace=wrap;rounded=0;fontStyle=1;fontColor=#FF0000;" vertex="1" parent="1">
          <mxGeometry x="1380" y="285" width="60" height="30" as="geometry" />
        </mxCell>
      </root>
    </mxGraphModel>
  </diagram>
</mxfile>
